<svg xmlns="http://www.w3.org/2000/svg" width="43" height="52" viewBox="0 0 43 52" version="1.1"><path d="M 2.073 29.635 C -2.387 35.304, 0.311 45.557, 7.418 49.950 C 11.581 52.522, 20.476 52.756, 23.865 50.382 L 26.175 48.764 22.385 44.882 C 20.300 42.747, 17.756 41, 16.731 41 C 13.160 41, 10.782 39.006, 11.403 36.532 C 12.110 33.713, 9.879 31.586, 7.129 32.459 C 5.704 32.911, 4.983 32.523, 4.516 31.051 C 4.161 29.933, 4.152 28.564, 4.494 28.009 C 5.765 25.954, 4.077 27.087, 2.073 29.635" stroke="none" fill="#6f3bcc" fill-rule="evenodd"/><path d="M 41.317 2.695 C 40.671 4.453, 38.309 7.879, 36.069 10.310 C 31.964 14.763, 27.485 17.148, 13.235 22.472 C 5.743 25.271, 3.409 27.563, 4.513 31.040 C 4.972 32.488, 5.729 32.855, 7.392 32.438 C 8.740 32.099, 10.127 32.448, 10.837 33.304 C 11.860 34.536, 12.590 34.457, 16.055 32.743 C 18.270 31.647, 20.347 31.014, 20.670 31.337 C 20.993 31.659, 20.725 34.035, 20.075 36.615 C 18.896 41.300, 18.900 41.313, 22.625 45.128 C 25.701 48.278, 26.616 48.734, 27.837 47.725 C 30.905 45.186, 32.956 38.640, 32.978 31.309 C 32.990 27.354, 33.468 23.829, 34.041 23.475 C 37.567 21.296, 43.391 7.230, 42.816 2.283 L 42.492 -0.500 41.317 2.695" stroke="none" fill="#4c3dc8" fill-rule="evenodd"/></svg>