<?xml version="1.0" standalone="no"?>
<!DOCTYPE svg PUBLIC "-//W3C//DTD SVG 20010904//EN"
 "http://www.w3.org/TR/2001/REC-SVG-20010904/DTD/svg10.dtd">
<svg version="1.0" xmlns="http://www.w3.org/2000/svg"
 width="43.000000pt" height="52.000000pt" viewBox="0 0 43.000000 52.000000"
 preserveAspectRatio="xMidYMid meet">

<g transform="translate(0.000000,52.000000) scale(0.100000,-0.100000)"
fill="#000000" stroke="none">
<path d="M405 464 c-37 -68 -115 -120 -248 -164 -82 -27 -133 -68 -148 -120
-10 -34 -9 -44 12 -87 27 -54 83 -93 134 -93 43 0 109 33 132 66 27 38 43 97
43 160 0 35 6 59 19 75 28 37 53 89 67 144 7 27 12 50 11 52 -2 1 -11 -14 -22
-33z m-195 -288 c0 -45 -18 -76 -45 -76 -8 0 -26 11 -42 24 -25 21 -26 25 -13
41 12 14 82 53 98 55 1 0 2 -20 2 -44z"/>
</g>
</svg>
