<svg xmlns="http://www.w3.org/2000/svg" width="43" height="52" viewBox="0 0 43 52" version="1.1"><path d="M 41.317 2.695 C 40.671 4.453, 38.309 7.879, 36.069 10.310 C 31.968 14.758, 27.479 17.151, 13.290 22.451 C 3.869 25.970, 0 30.109, 0 36.667 C 0 45.759, 6.601 52, 16.218 52 C 26.991 52, 33 44.495, 33 31.039 C 33 27.232, 33.468 23.829, 34.041 23.475 C 37.567 21.296, 43.391 7.230, 42.816 2.283 L 42.492 -0.500 41.317 2.695 M 16.075 32.752 C 11.274 35.202, 9.940 37.701, 12.441 39.559 C 16.056 42.243, 18.795 41.400, 19.947 37.250 C 21.854 30.386, 21.505 29.980, 16.075 32.752" stroke="none" fill="#6f3bcc" fill-rule="evenodd"/></svg>
